<svg xmlns="http://www.w3.org/2000/svg" width="524.67" height="458.466" viewBox="0 0 524.67 458.466"><path fill="#ffb6b6" d="m366.925 451.647-7.957-.001-3.785-30.691h11.744z"/><path d="M339.664 451.466c-.248.417-.379 1.764-.379 2.25a2.7 2.7 0 0 0 2.701 2.7h24.641a1.84 1.84 0 0 0 1.843-1.843v-1.025s1.219-3.084-1.29-6.884c0 0-3.12 2.976-7.78-1.685l-1.375-2.49-9.95 7.276-5.514.679c-1.207.148-2.276-.023-2.897 1.022" fill="#2f2e41"/><path fill="#ffb6b6" d="m450.921 441.693-7.271 3.232-15.927-26.507 10.731-4.77z"/><path d="M425.937 452.603c-.057.482.371 1.765.568 2.209a2.7 2.7 0 0 0 3.565 1.37l22.517-10.01a1.84 1.84 0 0 0 .935-2.432l-.417-.938s-.139-3.312-3.976-5.765c0 0-1.641 3.986-7.794 1.62l-2.267-1.716-6.136 10.69-4.763 2.86c-1.042.627-2.09.904-2.232 2.112m-76.305-192.997-7.074 14.856 12.027 154.222h15.04l6.183-101.164 53.977 101.164h18.45l-27.858-72.159-19.101-94.09z" fill="#2f2e41"/><path d="M387.512 164.33h-18.655l-6.842 10.736-15.431 7.38 3.354 46.296-1.683 33.755 2.307-.067c16.463-.48 32.918 2.197 48.196 8.35 3.92 1.577 8.029 2.458 11.566 1.574 0 0-1.342-5.368-2.684-6.71s-2.013-2.451-1.342-3.238 2.013-1.459.671-2.8-1.342-3.033-1.342-3.033l-4.026-29.844 8.052-42.27-16.774-9.393z" fill="#33375d"/><path fill="#ffb6b6" d="m419.567 222.858-.508 39.594-9.852 35.295-7.875-2.937 3.497-32.352-.46-43.78z"/><ellipse cx="403.717" cy="302.445" rx="9.341" ry="5.546" transform="rotate(-79.681 403.717 302.445)" fill="#ffb6b6"/><path d="M405.627 182.446s11.116 1.723 11.26 11.261 10.881 24.97 4.172 37.048l-17.445 2.684-9.393-34.219 10.735-18.115" fill="#33375d"/><path fill="#ffb6b6" d="m354.891 215.886-22.151 32.82-27.604 24.101-4.972-6.777 20.676-25.127 23.64-36.853z"/><ellipse cx="297.968" cy="273.722" rx="9.341" ry="5.546" transform="rotate(-46.4 297.968 273.722)" fill="#ffb6b6"/><path d="M365.413 174.452s8.347 7.54 3.235 15.593-4.607 26.846-16.843 33.26l-16.056-7.329c1.352-13.231 2.141-26.95 10.924-33.76l18.915-9.254" fill="#33375d"/><circle cx="375.29" cy="144.874" r="16.692" fill="#ffb6b6"/><path d="M387.549 158.589c.92.156 1.999-2.072 3.03-4.243 2.16-4.543 3.532-7.432 3.636-11.514.09-3.48-.877-2.567-1.818-10.303-.31-2.552-4.67-2.547-5.556-3.758-1.5-2.047.8-2.891-2.928-4.12-6.984-2.303-10.143 1.274-14.578 1.582-.112.008-2.31 2.158-3.539 2.27-2.151.194-5.255-.14-6.647-3.419-1.3-3.065-2.163 5.892-1 7 .988.941 2.69 3.303 2.734 3.475.05.195-4.05-4.346-4.734-2.475-.492 1.347 1.058 8.275 2.31 8.535 1.047.218 3.608-3.233 3.03-1.818-1.34 3.283 6.718 5.378 16.363-1.212.342-.233.02.14 1.212 3.03 1.505 3.647 1.845 3.844 1.818 4.849-.056 2.174-1.689 2.814-1.212 4.242.387 1.157 1.897 2.052 3.03 1.818 1.28-.264 1.499-1.846 2.425-1.818.793.024 1.734 1.219 1.818 2.424.176 2.54-3.584 3.238-4.242 6.667-.372 1.934 4.003-1.357 4.848-1.212" fill="#2f2e41"/><path d="M255.412 457.176H111.987c-21.512 0-39.013-17.501-39.013-39.014V39.013C72.974 17.501 90.475 0 111.987 0h143.425c21.512 0 39.013 17.501 39.013 39.013 2.67 152.255 7.223 322.756 0 379.15 0 21.512-17.501 39.013-39.013 39.013" fill="#33375d"/><path d="M296.425 139.464c-.91 0-1.65.74-1.65 1.65v52.814c0 .91.74 1.65 1.65 1.65s1.65-.74 1.65-1.65v-52.814c0-.91-.74-1.65-1.65-1.65" fill="#3f3d56"/><path d="M290.712 39.014v379.142c0 18.724-14.574 34.04-33 35.229h-.01c-.271.016-.544.033-.824.041-.487.025-.974.033-1.47.033 0 0-1.815-.132-5.132-.38-3.35-.247-8.228-.618-14.31-1.105-1.823-.14-3.746-.297-5.776-.462a2666 2666 0 0 1-13.245-1.106c-1.898-.157-3.862-.33-5.867-.504a3229 3229 0 0 1-33.835-3.086 974 974 0 0 1-6.189-.594c-.545-.058-94.366-23.643-94.366-28.066V39.014c0-19.5 15.803-35.304 35.303-35.304h21.076c3.367 0 6.074 2.625 6.363 5.983.025.223.05.446.09.669.611 3.375 3.706 5.727 7.139 5.727h74.082c3.433 0 6.527-2.352 7.138-5.727.041-.223.066-.446.09-.669.29-3.358 2.996-5.983 6.363-5.983h21.077c19.5 0 35.303 15.804 35.303 35.304" fill="#fff"/><path d="M72.149 99.853c-.91 0-1.65.74-1.65 1.65v13.204c0 .91.74 1.65 1.65 1.65s1.65-.74 1.65-1.65v-13.204c0-.91-.74-1.65-1.65-1.65m0 39.611c-.91 0-1.65.74-1.65 1.65v25.582c0 .91.74 1.65 1.65 1.65s1.65-.74 1.65-1.65v-25.582c0-.91-.74-1.65-1.65-1.65m0 36.309c-.91 0-1.65.74-1.65 1.65v25.583c0 .91.74 1.65 1.65 1.65s1.65-.74 1.65-1.65v-25.582c0-.91-.74-1.65-1.65-1.65" fill="#3f3d56"/><rect x="100.619" y="9.49" width="32.184" height="4.126" rx=".31" ry=".31" fill="#e6e6e6"/><circle cx="239.548" cy="10.315" r="3.301" fill="#e6e6e6"/><circle cx="248.625" cy="10.315" r="3.301" fill="#e6e6e6"/><circle cx="257.703" cy="10.315" r="3.301" fill="#e6e6e6"/><path d="M258.752 303.725c0-37.625-31.8-58.323-68.126-68.126-46.573-12.569-80.682 12.864-68.127 68.126 8.336 36.69 50.648 91.446 68.127 58.127 20-38.127 68.126-20.501 68.126-58.127" fill="#f2f2f2"/><path d="M0 457.276c0 .66.53 1.19 1.19 1.19h522.29c.66 0 1.19-.53 1.19-1.19s-.53-1.19-1.19-1.19H1.19c-.66 0-1.19.53-1.19 1.19" fill="#ccc"/><path d="m167.211 297.009-8.23-3.899c3.376 4.711 6.284 12.069 7.842 17.923 2.636-5.453 6.886-12.126 11.093-16.112l-8.698 2.238c5.36-26.268 25.52-45.126 48.605-45.126l.326-.949c-24.113 0-45.465 18.597-50.938 45.925" fill="#3f3d56"/><path d="M205.09 337.033h-52c-2.205 0-4-1.794-4-4s1.795-4 4-4h52c2.206 0 4 1.794 4 4s-1.794 4-4 4" fill="#33375d"/><g fill="#3f3d56"><path d="M253.7 129.725v106c0 9.374-7.626 17-17 17h-106c-9.374 0-17-7.626-17-17v-106c0-9.374 7.626-17 17-17h106c9.374 0 17 7.626 17 17m-17 121c8.284 0 15-6.715 15-15v-53.44c0-37.312-30.247-67.56-67.56-67.56H130.7c-8.284 0-15 6.716-15 15v106c0 8.285 6.716 15 15 15z"/><path d="M197.81 156.017h-34.22c-.863 0-1.565-.702-1.565-1.564s.702-1.565 1.565-1.565h34.22a1.566 1.566 0 0 1 0 3.13m0 33.363h-34.22c-.863 0-1.565-.702-1.565-1.565s.702-1.564 1.565-1.564h34.22c.863 0 1.565.702 1.565 1.564s-.702 1.565-1.565 1.565m-17 46h-34.22c-.863 0-1.565-.702-1.565-1.565s.702-1.564 1.565-1.564h34.22c.863 0 1.565.702 1.565 1.564s-.702 1.565-1.565 1.565m35.364-62.671h-70.947c-.863 0-1.565-.702-1.565-1.564s.702-1.565 1.565-1.565h70.947c.862 0 1.564.702 1.564 1.565 0 .862-.702 1.564-1.564 1.564"/></g></svg>